# Blender v2.82 (sub 7) OBJ File: ''
# www.blender.org
mtllib terrain.mtl
o Cylinder_Cylinder.004
v -0.947866 -0.445490 -0.608221
v -1.136484 14.826163 -1.359305
v -0.752776 -0.445490 -0.589007
v -0.941393 14.826163 -1.340090
v -0.565183 -0.445490 -0.532101
v -0.753800 14.826163 -1.283184
v -0.392296 -0.445490 -0.439691
v -0.580914 14.826163 -1.190774
v -0.240759 -0.445490 -0.315328
v -0.429377 14.826163 -1.066411
v -0.116397 -0.445490 -0.163792
v -0.305014 14.826163 -0.914875
v 0.038286 -0.672545 0.059634
v -0.150331 14.599109 -0.691450
v 11.809148 -0.672545 0.247227
v 11.620530 14.599109 -0.503857
v 11.766089 -0.445490 0.391778
v 11.577472 14.826163 -0.359305
v 0.032919 -0.445490 0.586869
v -0.155698 14.826163 -0.164214
v -0.023987 -0.445490 0.774462
v -0.212604 14.826163 0.023379
v -0.116397 -0.445490 0.947349
v -0.305014 14.826163 0.196266
v -0.240759 -0.445490 1.098885
v -0.429377 14.826163 0.347802
v -0.392296 -0.445490 1.223248
v -0.580914 14.826163 0.472165
v -0.565183 -0.445490 1.315658
v -0.753801 14.826163 0.564575
v -0.752776 -0.445490 1.372564
v -0.941394 14.826163 0.621481
v -0.947866 -0.445490 1.391779
v -1.136484 14.826163 0.640695
v -1.142957 -0.445490 1.372564
v -1.331574 14.826163 0.621480
v -1.330550 -0.445490 1.315658
v -1.519168 14.826163 0.564575
v -1.503437 -0.445490 1.223248
v -1.692055 14.826163 0.472165
v -1.654974 -0.445490 1.098885
v -1.843591 14.826163 0.347802
v -1.779336 -0.445490 0.947348
v -1.967954 14.826163 0.196265
v -1.871746 -0.445490 0.774461
v -2.060364 14.826163 0.023378
v -15.090099 -0.445490 0.586868
v -15.278717 14.826163 -0.164215
v -15.109314 -0.445490 0.391778
v -15.297932 14.826163 -0.359306
v -1.928651 -0.445490 0.196687
v -2.117269 14.826163 -0.554396
v -1.871745 -0.445490 0.009094
v -2.060363 14.826163 -0.741989
v -1.779335 -0.445490 -0.163793
v -1.967953 14.826163 -0.914876
v -1.654972 -0.445490 -0.315329
v -1.843590 14.826163 -1.066412
v -1.503435 -0.445490 -0.439692
v -1.692053 14.826163 -1.190775
v -1.330548 -0.445490 -0.532102
v -1.519166 14.826163 -1.283185
v -1.142955 -0.445490 -0.589007
v -1.331573 14.826163 -1.340090
v -0.155698 7.560307 0.211644
v 0.032919 -0.445490 0.586869
v -0.136484 7.560307 0.016553
v 0.052134 -0.445490 0.391778
vt 1.000000 0.500000
vt 1.000000 0.949757
vt 0.968750 0.949757
vt 0.968750 0.500000
vt 0.937500 0.949757
vt 0.937500 0.500000
vt 0.906250 0.949757
vt 0.906250 0.500000
vt 0.875000 0.949757
vt 0.875000 0.500000
vt 0.843750 0.949757
vt 0.843750 0.500000
vt 0.812500 0.949757
vt 0.812500 0.500000
vt 0.781250 0.949758
vt 0.781250 0.500000
vt 0.750000 0.949757
vt 0.750000 0.500000
vt 0.718750 0.500000
vt 0.718750 0.949757
vt 0.687500 0.949757
vt 0.687500 0.500000
vt 0.656250 0.949757
vt 0.656250 0.500000
vt 0.625000 0.949757
vt 0.625000 0.500000
vt 0.593750 0.949758
vt 0.593750 0.500000
vt 0.562500 0.949757
vt 0.562500 0.500000
vt 0.531250 0.949757
vt 0.531250 0.500000
vt 0.500000 0.949757
vt 0.500000 0.500000
vt 0.468750 0.949757
vt 0.468750 0.500000
vt 0.437500 0.949758
vt 0.437500 0.500000
vt 0.406250 0.949757
vt 0.406250 0.500000
vt 0.375000 0.949757
vt 0.375000 0.500000
vt 0.343750 0.949757
vt 0.343750 0.500000
vt 0.312500 0.949758
vt 0.312500 0.500000
vt 0.281250 0.949757
vt 0.281250 0.500000
vt 0.250000 0.949758
vt 0.250000 0.500000
vt 0.218750 0.949757
vt 0.218750 0.500000
vt 0.187500 0.949758
vt 0.187500 0.500000
vt 0.156250 0.949757
vt 0.156250 0.500000
vt 0.125000 0.949757
vt 0.125000 0.500000
vt 0.093750 0.949757
vt 0.093750 0.500000
vt 0.062500 0.949757
vt 0.062500 0.500000
vt 0.301879 0.475328
vt 0.255057 0.479940
vt 0.208236 0.475328
vt 0.163213 0.461671
vt 0.121720 0.439492
vt 0.085352 0.409646
vt 0.055504 0.373277
vt 0.033326 0.331784
vt 0.019669 0.286762
vt 0.015057 0.239940
vt 0.019668 0.193118
vt 0.033326 0.148096
vt 0.055504 0.106603
vt 0.085351 0.070234
vt 0.121720 0.040387
vt 0.163213 0.018209
vt 0.208235 0.004552
vt 0.255057 -0.000060
vt 0.301879 0.004551
vt 0.346901 0.018209
vt 0.388394 0.040387
vt 0.424762 0.070233
vt 0.454610 0.106603
vt 0.476788 0.148096
vt 0.490445 0.193118
vt 0.495057 0.239940
vt 0.490445 0.286762
vt 0.476788 0.331784
vt 0.454610 0.373277
vt 0.424763 0.409646
vt 0.388394 0.439493
vt 0.346901 0.461671
vt 0.031250 0.949757
vt 0.031250 0.500000
vt 0.000000 0.949757
vt 0.000000 0.500000
vt 0.750000 0.490000
vt 0.796822 0.485388
vt 0.841844 0.471731
vt 0.883337 0.449553
vt 0.919706 0.419706
vt 0.949553 0.383337
vt 0.971731 0.341844
vt 0.985388 0.296822
vt 0.990000 0.250000
vt 0.985388 0.203178
vt 0.971731 0.158156
vt 0.949553 0.116663
vt 0.919706 0.080294
vt 0.883337 0.050447
vt 0.841844 0.028269
vt 0.796822 0.014612
vt 0.750000 0.010000
vt 0.703178 0.014612
vt 0.658156 0.028269
vt 0.616663 0.050447
vt 0.580294 0.080294
vt 0.550447 0.116663
vt 0.528269 0.158156
vt 0.514611 0.203179
vt 0.510000 0.250000
vt 0.514612 0.296822
vt 0.528269 0.341844
vt 0.550447 0.383337
vt 0.580295 0.419706
vt 0.616663 0.449553
vt 0.658156 0.471731
vt 0.703179 0.485389
vt 0.750000 0.500000
vt 0.750000 0.949757
vt 0.718750 0.949757
vt 0.718750 0.500000
vn 0.0979 -0.0477 -0.9941
vn 0.2900 -0.0434 -0.9560
vn 0.4711 -0.0375 -0.8813
vn 0.6341 -0.0302 -0.7727
vn 0.7728 -0.0216 -0.6342
vn 0.8131 -0.0186 -0.5818
vn 0.0159 -0.0489 -0.9987
vn 0.9679 0.0243 0.2502
vn 0.9566 0.0261 0.2902
vn 0.8814 0.0341 0.4711
vn 0.7724 0.0407 0.6339
vn 0.6337 0.0458 0.7722
vn 0.4708 0.0491 0.8809
vn 0.2899 0.0506 0.9557
vn 0.0979 0.0501 0.9939
vn -0.0979 0.0477 0.9941
vn -0.2900 0.0434 0.9560
vn -0.4711 0.0375 0.8813
vn -0.6341 0.0302 0.7727
vn -0.7728 0.0216 0.6342
vn -0.8819 0.0123 0.4714
vn -0.0142 0.0489 0.9987
vn -0.9952 -0.0075 0.0980
vn -0.0148 -0.0493 -0.9987
vn -0.9566 -0.0261 -0.2902
vn -0.8814 -0.0341 -0.4711
vn -0.7724 -0.0407 -0.6339
vn -0.6337 -0.0458 -0.7722
vn -0.4708 -0.0491 -0.8809
vn 0.0068 0.9764 -0.2156
vn -0.2899 -0.0506 -0.9557
vn -0.0979 -0.0501 -0.9939
vn -0.0068 -0.9764 0.2156
vn 0.9948 0.0280 0.0980
usemtl None
s off
f 1/1/1 2/2/1 4/3/1 3/4/1
f 3/4/2 4/3/2 6/5/2 5/6/2
f 5/6/3 6/5/3 8/7/3 7/8/3
f 7/8/4 8/7/4 10/9/4 9/10/4
f 9/10/5 10/9/5 12/11/5 11/12/5
f 11/12/6 12/11/6 14/13/6 13/14/6
f 13/14/7 14/13/7 16/15/7 15/16/7
f 15/16/8 16/15/8 18/17/8 17/18/8
f 19/19/9 20/20/9 22/21/9 21/22/9
f 21/22/10 22/21/10 24/23/10 23/24/10
f 23/24/11 24/23/11 26/25/11 25/26/11
f 25/26/12 26/25/12 28/27/12 27/28/12
f 27/28/13 28/27/13 30/29/13 29/30/13
f 29/30/14 30/29/14 32/31/14 31/32/14
f 31/32/15 32/31/15 34/33/15 33/34/15
f 33/34/16 34/33/16 36/35/16 35/36/16
f 35/36/17 36/35/17 38/37/17 37/38/17
f 37/38/18 38/37/18 40/39/18 39/40/18
f 39/40/19 40/39/19 42/41/19 41/42/19
f 41/42/20 42/41/20 44/43/20 43/44/20
f 43/44/21 44/43/21 46/45/21 45/46/21
f 45/46/22 46/45/22 48/47/22 47/48/22
f 47/48/23 48/47/23 50/49/23 49/50/23
f 49/50/24 50/49/24 52/51/24 51/52/24
f 51/52/25 52/51/25 54/53/25 53/54/25
f 53/54/26 54/53/26 56/55/26 55/56/26
f 55/56/27 56/55/27 58/57/27 57/58/27
f 57/58/28 58/57/28 60/59/28 59/60/28
f 59/60/29 60/59/29 62/61/29 61/62/29
f 4/63/30 2/64/30 64/65/30 62/66/30 60/67/30 58/68/30 56/69/30 54/70/30 52/71/30 50/72/30 48/73/30 46/74/30 44/75/30 42/76/30 40/77/30 38/78/30 36/79/30 34/80/30 32/81/30 30/82/30 28/83/30 26/84/30 24/85/30 22/86/30 20/87/30 18/88/30 16/89/30 14/90/30 12/91/30 10/92/30 8/93/30 6/94/30
f 61/62/31 62/61/31 64/95/31 63/96/31
f 63/96/32 64/95/32 2/97/32 1/98/32
f 1/99/33 3/100/33 5/101/33 7/102/33 9/103/33 11/104/33 13/105/33 15/106/33 17/107/33 19/108/33 21/109/33 23/110/33 25/111/33 27/112/33 29/113/33 31/114/33 33/115/33 35/116/33 37/117/33 39/118/33 41/119/33 43/120/33 45/121/33 47/122/33 49/123/33 51/124/33 53/125/33 55/126/33 57/127/33 59/128/33 61/129/33 63/130/33
f 68/131/34 67/132/34 65/133/34 66/134/34
